inDegrees=no
num_controls=7
num_derivatives=13
num_iterations=125
num_multipliers=7
num_parameters=0
num_slacks=7
num_states=26
objective=5.773547
objective_accelerations=0.701072
objective_balance=0.006303
objective_effort=0.497927
objective_height=4.498501
objective_ligament=0.069744
solver_duration=1051.973289
status=Solve_Succeeded
success=true
DataType=double
version=3
OpenSimVersion=4.4-2022-07-23-0e9fedc
endheader
time	/jointset/ground_pelvis/pelvis_tilt/value	/jointset/ground_pelvis/pelvis_tx/value	/jointset/ground_pelvis/pelvis_ty/value	/jointset/hip_r/hip_flexion_r/value	/jointset/hip_r/hip_adduction_r/value	/jointset/hip_r/hip_rotation_r/value	/jointset/back/lumbar_extension/value	/jointset/patellofemoral_r/patellar_flexion_r/value	/jointset/knee_r/knee_flexion_r/value	/jointset/knee_r/knee_adduction_r/value	/jointset/knee_r/knee_rotation_r/value	/jointset/ankle_r/ankle_angle_r/value	/jointset/subtalar_r/subtalar_angle_r/value	/jointset/ground_pelvis/pelvis_tilt/speed	/jointset/ground_pelvis/pelvis_tx/speed	/jointset/ground_pelvis/pelvis_ty/speed	/jointset/hip_r/hip_flexion_r/speed	/jointset/hip_r/hip_adduction_r/speed	/jointset/hip_r/hip_rotation_r/speed	/jointset/back/lumbar_extension/speed	/jointset/patellofemoral_r/patellar_flexion_r/speed	/jointset/knee_r/knee_flexion_r/speed	/jointset/knee_r/knee_adduction_r/speed	/jointset/knee_r/knee_rotation_r/speed	/jointset/ankle_r/ankle_angle_r/speed	/jointset/subtalar_r/subtalar_angle_r/speed	/forceset/tau_hip_flexion_r	/forceset/tau_hip_adduction_r	/forceset/tau_hip_rotation_r	/forceset/tau_knee_flexion_r	/forceset/tau_ankle_angle_r	/forceset/tau_subtalar_angle_r	/forceset/tau_lumbar_extension	lambda_cid13_p0	lambda_cid14_p0	lambda_cid14_p1	lambda_cid14_p2	lambda_cid14_p3	lambda_cid14_p4	lambda_cid14_p5	/jointset/ground_pelvis/pelvis_tilt/accel	/jointset/ground_pelvis/pelvis_tx/accel	/jointset/ground_pelvis/pelvis_ty/accel	/jointset/hip_r/hip_flexion_r/accel	/jointset/hip_r/hip_adduction_r/accel	/jointset/hip_r/hip_rotation_r/accel	/jointset/back/lumbar_extension/accel	/jointset/patellofemoral_r/patellar_flexion_r/accel	/jointset/knee_r/knee_flexion_r/accel	/jointset/knee_r/knee_adduction_r/accel	/jointset/knee_r/knee_rotation_r/accel	/jointset/ankle_r/ankle_angle_r/accel	/jointset/subtalar_r/subtalar_angle_r/accel	gamma_cid13_p0	gamma_cid14_p0	gamma_cid14_p1	gamma_cid14_p2	gamma_cid14_p3	gamma_cid14_p4	gamma_cid14_p5
1	-0.2420663827579337	-0.02458834487205576	0.5956814577118053	1.540377809025601	-0.2417000010926493	-0.06052732820325516	-0.7853873711636361	1.613879998950417	1.613879998950377	-0.174528292491293	0.174529318123036	0.4362380841080172	0.1687179702222306	0.06876027150994608	0.004713432655000253	0.01616057982073705	-0.1013257552591113	-0.0009620756067506669	-0.003249906361422342	-0.0002220318768969294	-0.01826551780413803	-0.018265517804129	0.002697632524035602	-0.0005742882644993268	0.01440262706576655	0.005510814575167867	-0.3446679625422468	0.01663157067767456	0.006686541389120931	-0.4934418016308513	-0.00410518688191699	0.007285965222536614	0.3656679475247516	-0.03991672862409649	-53.7050809758808	-9.647027608021185	5.852634086949516	11.40952366406939	-781.0578370747222	75.59784679655208	1.117112406126326	0.05015298704421685	2.038749790518998	-5.768226239549471	0.2659751038589132	-0.9905332838642228	-0.02936965250876194	-5.509453305258825	-5.509453305258837	0.4055747208655223	-0.0460531058715161	-1.004650053875731	0.02096423914978526	5.101128195515591e-10	2.568742022031739e-10	3.123792693202306e-09	3.04768364874586e-09	-2.84517367888063e-10	-5.06065516312323e-09	2.61903540618115e-09
1.01	-0.2413234479770557	-0.0245386796758237	0.5959449183233432	1.539076769229405	-0.2416962841668228	-0.06060618200627756	-0.7853903301341139	1.613422152302861	1.6134221523028	-0.1744778855485798	0.1745209944182642	0.4363318107618478	0.1687740856929461	0.07982785324282077	0.005224373228349515	0.03653371503678877	-0.1588905175845137	0.001699424664749467	-0.01245254203675027	-0.0003586472525807449	-0.07331274771213737	-0.07331274771212944	0.007466341328500178	-0.001076699172565005	0.004333239295016222	0.005694030593083723	-0.3442901131567052	0.0166169432793811	0.006783678619947658	-0.493807645003668	-0.003760248444587631	0.007265536662887732	0.3655583887243889	-0.03992356730110726	-53.59946414683014	-9.644191938705513	5.859932230672223	11.31481079304652	-781.1162164026028	75.66090015078078	1.101757774935174	0.0522789573730409	2.03691870836766	-5.751847044066229	0.2653364031350022	-0.8748805908019631	-0.004140243753166656	-5.503699242293616	-5.503699242293383	0.5249064636948527	-0.05026269168440577	-1.00950291387549	0.01427186585564891	4.995932168823029e-09	6.361983385868167e-09	3.185697475433468e-08	3.296533968009581e-08	-3.125590225962663e-09	-1.272856212957258e-08	6.748293302224562e-08
1.02	-0.2404698020352746	-0.02448376220087817	0.5964121749512851	1.537199832646912	-0.2416661324554129	-0.06077501254235154	-0.7853943218103565	1.61241356507448	1.612413565074462	-0.1743773140169735	0.1745080610828272	0.4363245595839595	0.1688314876403916	0.09090250369842698	0.005763888397695676	0.05691978310147933	-0.2165051125111094	0.004324881509818359	-0.02124525296949221	-0.0004285731744470464	-0.128413633969079	-0.1284136339690726	0.01273055027128757	-0.001496214417031751	-0.005792939483779245	0.005768109920713879	-0.3439122637712565	0.01660231588111635	0.006880815851318708	-0.4941734883764622	-0.003415310007250981	0.00724510810328459	0.3654488299239248	-0.03993968747195552	-53.50129908670971	-9.640272627212289	5.864329125768298	11.23501020131067	-781.2834715569371	75.74675647467689	1.118526150672592	0.05586790624367372	2.041336360246743	-5.778192759788143	0.2587664185725348	-0.9085483353475582	-0.01603176174444432	-5.520184575047185	-5.520184575047288	0.5046747485296745	-0.0294739731514371	-1.016008255484601	-0.0008630989075069052	1.280958153846939e-08	1.724553414560702e-08	7.191417274968737e-08	8.581277884676189e-08	-8.887570689218135e-09	-2.147404842413608e-08	1.726099301115815e-07
1.03	-0.2395055132168088	-0.02442322253815946	0.59708328120347	1.534746727687321	-0.2416099120441763	-0.06102979580478207	-0.7853978906277862	1.610853791567342	1.610853791567357	-0.1742217299397915	0.1744913612548518	0.4362157783936109	0.1688890803161573	0.1019423723515323	0.00635730851979507	0.07729617230558559	-0.2741020066783773	0.006914654302351661	-0.02965909358376394	-0.0001949603830412404	-0.1835418062943467	-0.1835418062943443	0.01844681509347501	-0.001833667894426576	-0.01597039749071887	0.005736270533270186	-0.34389546376983	0.01661297377405404	0.007028659780057508	-0.4941249643013129	-0.003306694504020573	0.007249120361235811	0.3657691419200087	-0.03995789211905467	-53.47284377713914	-9.629264298690424	5.857681511897064	11.08638420495407	-781.4704323960534	75.80192006715949	1.094789933349501	0.06306575129293902	2.034989846909303	-5.748351380229433	0.258418190386502	-0.7999464550225359	0.05659231656674207	-5.509248565146761	-5.509248565146885	0.614179471165786	-0.03432981058235471	-1.019678951016464	-0.006433421869517987	2.065718835730327e-08	2.817784451326502e-08	1.120869219280424e-07	1.388941953923599e-07	-1.467935633211833e-08	-3.023053042612932e-08	2.781477751547264e-07
